<svg xmlns="http://www.w3.org/2000/svg" version="1" width="30.614" height="35.554"><g font-weight="400" fill="none" stroke-miterlimit="10.433"><path d="M19.895 3.667l-.013.075-.025.063-.012.062-.025.063-.013.062-.025.075-.037.138-.025.062-.025.063-.025.075-.025.062-.025.063-.025.062-.025.063-.025.05c-.375.712-1.138 1.2-1.9 1.25-.863.012-1.525-.775-1.65-1.638-.075-.55.025-1.224.175-1.762l3.725 1.112zM16.22 2.193l.025-.063.012-.05.05-.125.038-.112.037-.125.05-.113.025-.062.025-.05.025-.063.025-.05.025-.05.025-.062c.288-.625.875-1.113 1.538-1.2.737-.088 1.475.387 1.787 1.037l1.15 2.575-4.837-1.487zm7.962 2.162l4.213 3.712c.325.275.25.838.1 1.25-.188.475-.713 1.125-1.088 1.45-.137.1-.312.188-.462.138-.213-.088-.388-.375-.475-.575l-.525-1.1c-.263-.55-.775-1.4-1.113-1.925l-1.35-1.825c-.112-.1-.5-.425-.612-.538a.408.408 0 0 1-.1-.337c.087-.413 1.1-.538 1.412-.25z" fill="#000"/><path d="M26.732 11.905l-.075-.225-.087-.238-.088-.225-.1-.237-.1-.225-.1-.238-.2-.462-.225-.45-.225-.45-.225-.45-.25-.438c-.45-.825-1-1.687-1.662-2.412-.45-.488-1.063-.938-1.725-1.038-.75-.125-1.638.25-2.275.675l-7.613 4.85a1.25 1.25 0 0 0-1.712 1.063c-.05.8.8 1.5 1.575 1.275.25-.075.475-.225.637-.438l1.688 1.413-3.388 3.812-.637.725a5.94 5.94 0 0 0-3.988-1.4c-2.975.075-5.512 2.375-5.862 5.325-.175 1.488.162 2.875 1 4.1a6.086 6.086 0 0 0 1.737 1.7c2.038 1.288 4.875 1.225 6.875-.25 1.963-1.475 2.85-4.15 2.188-6.5-.225-.775-.6-1.5-1.1-2.125l1.437-1.675 2.563 9.7 3.737 1.225c-.787 4 2.538 7.588 6.6 7.163 3.25-.35 5.663-3.3 5.4-6.513-.137-1.612-.85-3-2.075-4.075-1.225-1.062-2.7-1.562-4.337-1.462l-.45-2.75 3.237-3.675c.3-.338.525-.763.588-1.213.05-.375.025-.762-.038-1.125-.15-.925-.4-1.837-.725-2.737z" fill="#000"/><path fill="#fff" d="M14.17 15.28l1.6-1.725-2.25-1.875 5.712-3.388 3.013 5.775-4.85 1.038-.138 1.312zm10.25 9.812h.187l.175.013.175.025.188.025.175.025.162.05.175.037.175.063.163.062.162.063.163.075.15.075.15.087.15.088.15.1.137.1.138.112.137.113.125.112.125.125.125.125.113.138.1.137.112.138.088.137.1.15.087.163.075.15.075.162.063.163.062.162.05.175a4.462 4.462 0 0 1-1.862 4.913 4.412 4.412 0 0 1-4.75-.038c-1.463-.95-2.188-2.687-1.938-4.337l4.088 1.287a.81.81 0 0 0 .712-.112.762.762 0 0 0 .288-.775l-.75-4.088z"/><path d="M22.582 28.33l1 .337c.063.025.125 0 .163-.05.025-.025.037-.075.025-.112l-.538-3.25a3.945 3.945 0 0 0-1.6.8c-.5.425-.912.962-1.162 1.587l2.112.688zm-3-9.838l1.463.563-2.313 4.037zm2.575-1.425l-2.375.25 1.875.663zM8.907 19.48l-.087-.075-.088-.063-.087-.062-.088-.063-.087-.062-.088-.05-.087-.05-.088-.05-.1-.05-.087-.05-.1-.038-.088-.05-.1-.037-.087-.038-.1-.037-.1-.025-.1-.025-.088-.038-.1-.012-.1-.025-.1-.025-.112-.013-.1-.012-.1-.013-.1-.012-.113-.013H6.02l-.113.013h-.112c-2.3.187-4.088 2.2-3.975 4.525.1 2.25 1.987 4.1 4.237 4.137 2.238.05 4.163-1.65 4.413-3.862a4.162 4.162 0 0 0-.813-3.025l-2.562 2.812-1.038.275c-.362.1-.737-.162-.787-.537a.648.648 0 0 1 .462-.675l.8-.2 2.375-2.475z" fill="#fff"/><path d="M18.857 27.092l.063-.162.075-.175.075-.163.087-.15.088-.162.1-.15.1-.163.1-.137.112-.15.113-.138.112-.137.125-.138.125-.125.138-.137.137-.113.138-.125a5.567 5.567 0 0 1 2.375-1.162l-.275-1.825-3.888 3.875c-.3.3-.712.437-1.125.387a1.326 1.326 0 0 1-1.175-1.475l.725-6.937-3.837-1.4-.175.162 2.537 9.663 3.15 1.037z" fill="#fff"/></g></svg>